<svg xmlns="http://www.w3.org/2000/svg" viewBox="0 0 864 1080"><defs><style>.cls-1{fill:#3367d6;}</style></defs><g id="Capa_2" data-name="Capa 2"><g id="Capa_1-2" data-name="Capa 1"><path class="cls-1" d="M756,0H0V648A429.7,429.7,0,0,0,57.8,864,438.1,438.1,0,0,0,108,933.8V108H486a485.1,485.1,0,0,1,270,81.8c12.3,8.2,24.1,17,35.5,26.2A487.2,487.2,0,0,1,864,288.5V0Z"/><path class="cls-1" d="M827.6,432A378.8,378.8,0,0,0,756,329.5c-1.8-1.9-3.6-3.7-5.5-5.5A377.2,377.2,0,0,0,540,219.8a384.6,384.6,0,0,0-54-3.8H216V540H486a54,54,0,0,1,0,108H216v374.2a432,432,0,0,0,108,44.2V756H486a162,162,0,1,0,0-324H324V324H486a273.9,273.9,0,0,1,54,5.4A268.6,268.6,0,0,1,648,378a265.7,265.7,0,0,1,54,54,268.6,268.6,0,0,1,48.6,108,272.7,272.7,0,0,1,0,108A268.6,268.6,0,0,1,702,756a265.7,265.7,0,0,1-54,54,268.6,268.6,0,0,1-108,48.6,273.9,273.9,0,0,1-54,5.4H432v216c8.8,0,17.4-.3,26-.8a424.9,424.9,0,0,0,82-12.8V968.2A377.2,377.2,0,0,0,750.5,864c1.9-1.8,3.7-3.6,5.5-5.5A377.2,377.2,0,0,0,860.2,648c1.3-9.2,2.3-18.6,2.9-28s.9-17.2.9-26a384.6,384.6,0,0,0-3.8-54A375.8,375.8,0,0,0,827.6,432Z"/></g></g></svg>